<?xml version="1.0"?>
<!DOCTYPE svg PUBLIC "-//W3C//DTD SVG 1.0//EN"
"http://www.w3.org/TR/2001/REC-SVG-20010904/DTD/svg10.dtd">
<svg xmlns:svg="http://www.w3.org/2000/svg"
     xmlns:xlink="http://www.w3.org/1999/xlink"
     width="425.20" height="425.20"
     version="1.0">
<title></title>
<desc></desc>
<!-- drawing begins here -->
<text x="226.77" y="36.45" style="font-size:16pt;text-anchor:middle;fill:black;stroke:none;font-weight:normal;font-family:sanserif" >flow domain for sharp cone</text>
<polygon points="85.04,364.45 86.93,364.45 88.82,364.45 90.71,364.45 92.60,364.45 94.49,364.45 96.38,364.45 98.27,364.45 100.16,364.45 102.05,364.45 103.94,364.45 105.83,364.45 107.72,364.45 109.61,364.45 111.50,364.45 113.39,364.45 115.28,364.45 117.17,364.45 119.06,364.45 120.94,364.45 122.83,364.45 124.72,364.45 126.61,364.45 128.50,364.45 130.39,364.45 132.28,364.45 134.17,364.45 136.06,364.45 137.95,364.45 139.84,364.45 141.73,364.45 141.73,354.33 141.73,344.21 141.73,334.08 141.73,323.96 141.73,313.84 141.73,303.71 141.73,293.59 141.73,283.46 141.73,273.34 141.73,263.22 141.73,253.09 141.73,242.97 141.73,232.85 141.73,222.72 141.73,212.60 141.73,202.47 141.73,192.35 141.73,182.23 141.73,172.10 141.73,161.98 141.73,151.86 141.73,141.73 141.73,131.61 141.73,121.48 141.73,111.36 141.73,101.24 141.73,91.11 141.73,80.99 141.73,70.87 141.73,60.74 139.84,60.74 137.95,60.74 136.06,60.74 134.17,60.74 132.28,60.74 130.39,60.74 128.50,60.74 126.61,60.74 124.72,60.74 122.83,60.74 120.94,60.74 119.06,60.74 117.17,60.74 115.28,60.74 113.39,60.74 111.50,60.74 109.61,60.74 107.72,60.74 105.83,60.74 103.94,60.74 102.05,60.74 100.16,60.74 98.27,60.74 96.38,60.74 94.49,60.74 92.60,60.74 90.71,60.74 88.82,60.74 86.93,60.74 85.04,60.74 85.04,70.87 85.04,80.99 85.04,91.11 85.04,101.24 85.04,111.36 85.04,121.48 85.04,131.61 85.04,141.73 85.04,151.86 85.04,161.98 85.04,172.10 85.04,182.23 85.04,192.35 85.04,202.47 85.04,212.60 85.04,222.72 85.04,232.85 85.04,242.97 85.04,253.09 85.04,263.22 85.04,273.34 85.04,283.46 85.04,293.59 85.04,303.71 85.04,313.84 85.04,323.96 85.04,334.08 85.04,344.21 85.04,354.33 85.04,364.45" style="fill:green;fill-opacity:0.5"/>
<polygon points="85.04,364.45 86.93,364.45 88.82,364.45 90.71,364.45 92.60,364.45 94.49,364.45 96.38,364.45 98.27,364.45 100.16,364.45 102.05,364.45 103.94,364.45 105.83,364.45 107.72,364.45 109.61,364.45 111.50,364.45 113.39,364.45 115.28,364.45 117.17,364.45 119.06,364.45 120.94,364.45 122.83,364.45 124.72,364.45 126.61,364.45 128.50,364.45 130.39,364.45 132.28,364.45 134.17,364.45 136.06,364.45 137.95,364.45 139.84,364.45 141.73,364.45 141.73,354.33 141.73,344.21 141.73,334.08 141.73,323.96 141.73,313.84 141.73,303.71 141.73,293.59 141.73,283.46 141.73,273.34 141.73,263.22 141.73,253.09 141.73,242.97 141.73,232.85 141.73,222.72 141.73,212.60 141.73,202.47 141.73,192.35 141.73,182.23 141.73,172.10 141.73,161.98 141.73,151.86 141.73,141.73 141.73,131.61 141.73,121.48 141.73,111.36 141.73,101.24 141.73,91.11 141.73,80.99 141.73,70.87 141.73,60.74 139.84,60.74 137.95,60.74 136.06,60.74 134.17,60.74 132.28,60.74 130.39,60.74 128.50,60.74 126.61,60.74 124.72,60.74 122.83,60.74 120.94,60.74 119.06,60.74 117.17,60.74 115.28,60.74 113.39,60.74 111.50,60.74 109.61,60.74 107.72,60.74 105.83,60.74 103.94,60.74 102.05,60.74 100.16,60.74 98.27,60.74 96.38,60.74 94.49,60.74 92.60,60.74 90.71,60.74 88.82,60.74 86.93,60.74 85.04,60.74 85.04,70.87 85.04,80.99 85.04,91.11 85.04,101.24 85.04,111.36 85.04,121.48 85.04,131.61 85.04,141.73 85.04,151.86 85.04,161.98 85.04,172.10 85.04,182.23 85.04,192.35 85.04,202.47 85.04,212.60 85.04,222.72 85.04,232.85 85.04,242.97 85.04,253.09 85.04,263.22 85.04,273.34 85.04,283.46 85.04,293.59 85.04,303.71 85.04,313.84 85.04,323.96 85.04,334.08 85.04,344.21 85.04,354.33 85.04,364.45" style="fill:none;stroke:black;stroke-width:0.28;stroke-linecap:round;stroke-opacity:0.5"/>
<polygon points="141.73,364.45 149.29,361.51 156.85,358.56 164.41,355.61 171.97,352.66 179.53,349.72 187.09,346.77 194.65,343.82 202.20,340.87 209.76,337.92 217.32,334.98 224.88,332.03 232.44,329.08 240.00,326.13 247.56,323.18 255.12,320.24 262.68,317.29 270.24,314.34 277.80,311.39 285.35,308.45 292.91,305.50 300.47,302.55 308.03,299.60 315.59,296.65 323.15,293.71 330.71,290.76 338.27,287.81 345.83,284.86 353.39,281.92 360.94,278.97 368.50,276.02 368.50,268.84 368.50,261.67 368.50,254.49 368.50,247.32 368.50,240.14 368.50,232.96 368.50,225.79 368.50,218.61 368.50,211.44 368.50,204.26 368.50,197.08 368.50,189.91 368.50,182.73 368.50,175.56 368.50,168.38 368.50,161.21 368.50,154.03 368.50,146.85 368.50,139.68 368.50,132.50 368.50,125.33 368.50,118.15 368.50,110.97 368.50,103.80 368.50,96.62 368.50,89.45 368.50,82.27 368.50,75.09 368.50,67.92 368.50,60.74 360.94,60.74 353.39,60.74 345.83,60.74 338.27,60.74 330.71,60.74 323.15,60.74 315.59,60.74 308.03,60.74 300.47,60.74 292.91,60.74 285.35,60.74 277.80,60.74 270.24,60.74 262.68,60.74 255.12,60.74 247.56,60.74 240.00,60.74 232.44,60.74 224.88,60.74 217.32,60.74 209.76,60.74 202.20,60.74 194.65,60.74 187.09,60.74 179.53,60.74 171.97,60.74 164.41,60.74 156.85,60.74 149.29,60.74 141.73,60.74 141.73,70.87 141.73,80.99 141.73,91.11 141.73,101.24 141.73,111.36 141.73,121.48 141.73,131.61 141.73,141.73 141.73,151.86 141.73,161.98 141.73,172.10 141.73,182.23 141.73,192.35 141.73,202.47 141.73,212.60 141.73,222.72 141.73,232.85 141.73,242.97 141.73,253.09 141.73,263.22 141.73,273.34 141.73,283.46 141.73,293.59 141.73,303.71 141.73,313.84 141.73,323.96 141.73,334.08 141.73,344.21 141.73,354.33 141.73,364.45" style="fill:green;fill-opacity:0.5"/>
<polygon points="141.73,364.45 149.29,361.51 156.85,358.56 164.41,355.61 171.97,352.66 179.53,349.72 187.09,346.77 194.65,343.82 202.20,340.87 209.76,337.92 217.32,334.98 224.88,332.03 232.44,329.08 240.00,326.13 247.56,323.18 255.12,320.24 262.68,317.29 270.24,314.34 277.80,311.39 285.35,308.45 292.91,305.50 300.47,302.55 308.03,299.60 315.59,296.65 323.15,293.71 330.71,290.76 338.27,287.81 345.83,284.86 353.39,281.92 360.94,278.97 368.50,276.02 368.50,268.84 368.50,261.67 368.50,254.49 368.50,247.32 368.50,240.14 368.50,232.96 368.50,225.79 368.50,218.61 368.50,211.44 368.50,204.26 368.50,197.08 368.50,189.91 368.50,182.73 368.50,175.56 368.50,168.38 368.50,161.21 368.50,154.03 368.50,146.85 368.50,139.68 368.50,132.50 368.50,125.33 368.50,118.15 368.50,110.97 368.50,103.80 368.50,96.62 368.50,89.45 368.50,82.27 368.50,75.09 368.50,67.92 368.50,60.74 360.94,60.74 353.39,60.74 345.83,60.74 338.27,60.74 330.71,60.74 323.15,60.74 315.59,60.74 308.03,60.74 300.47,60.74 292.91,60.74 285.35,60.74 277.80,60.74 270.24,60.74 262.68,60.74 255.12,60.74 247.56,60.74 240.00,60.74 232.44,60.74 224.88,60.74 217.32,60.74 209.76,60.74 202.20,60.74 194.65,60.74 187.09,60.74 179.53,60.74 171.97,60.74 164.41,60.74 156.85,60.74 149.29,60.74 141.73,60.74 141.73,70.87 141.73,80.99 141.73,91.11 141.73,101.24 141.73,111.36 141.73,121.48 141.73,131.61 141.73,141.73 141.73,151.86 141.73,161.98 141.73,172.10 141.73,182.23 141.73,192.35 141.73,202.47 141.73,212.60 141.73,222.72 141.73,232.85 141.73,242.97 141.73,253.09 141.73,263.22 141.73,273.34 141.73,283.46 141.73,293.59 141.73,303.71 141.73,313.84 141.73,323.96 141.73,334.08 141.73,344.21 141.73,354.33 141.73,364.45" style="fill:none;stroke:black;stroke-width:0.28;stroke-linecap:round;stroke-opacity:0.5"/>
<path d="M 141.73,364.45 L 149.29,361.51 L 156.85,358.56 L 164.41,355.61 L 171.97,352.66 L 179.53,349.72 L 187.09,346.77 L 194.65,343.82 L 202.20,340.87 L 209.76,337.92 L 217.32,334.98 L 224.88,332.03 L 232.44,329.08 L 240.00,326.13 L 247.56,323.18 L 255.12,320.24 L 262.68,317.29 L 270.24,314.34 L 277.80,311.39 L 285.35,308.45 L 292.91,305.50 L 300.47,302.55 L 308.03,299.60 L 315.59,296.65 L 323.15,293.71 L 330.71,290.76 L 338.27,287.81 L 345.83,284.86 L 353.39,281.92 L 360.94,278.97 L 368.50,276.02" style="fill:none;stroke:black;stroke-width:1.42;stroke-linecap:round;stroke-opacity:1"/>
<circle cx="85.04" cy="364.45" r="2.83" style="fill:black" />
<text x="85.04" y="360.20" style="font-size:10pt;text-anchor:middle;fill:black;stroke:none;font-weight:normal;font-family:sanserif" >a</text>
<circle cx="141.73" cy="364.45" r="2.83" style="fill:black" />
<text x="141.73" y="360.20" style="font-size:10pt;text-anchor:middle;fill:black;stroke:none;font-weight:normal;font-family:sanserif" >b</text>
<circle cx="368.50" cy="276.02" r="2.83" style="fill:black" />
<text x="368.50" y="271.77" style="font-size:10pt;text-anchor:middle;fill:black;stroke:none;font-weight:normal;font-family:sanserif" >c</text>
<circle cx="368.50" cy="60.74" r="2.83" style="fill:black" />
<text x="368.50" y="56.49" style="font-size:10pt;text-anchor:middle;fill:black;stroke:none;font-weight:normal;font-family:sanserif" >d</text>
<circle cx="141.73" cy="60.74" r="2.83" style="fill:black" />
<text x="141.73" y="56.49" style="font-size:10pt;text-anchor:middle;fill:black;stroke:none;font-weight:normal;font-family:sanserif" >e</text>
<circle cx="85.04" cy="60.74" r="2.83" style="fill:black" />
<text x="85.04" y="56.49" style="font-size:10pt;text-anchor:middle;fill:black;stroke:none;font-weight:normal;font-family:sanserif" >f</text>
<g opacity="1" >
<line x1="85.04" y1="379.64" x2="368.50" y2="379.64" style="fill:none;stroke:black;stroke-width:0.85;stroke-linecap:round;stroke-opacity:1" />
<line x1="85.04" y1="379.64" x2="85.04" y2="385.71" style="fill:none;stroke:black;stroke-width:0.85;stroke-linecap:round;stroke-opacity:1" />
<line x1="141.73" y1="379.64" x2="141.73" y2="385.71" style="fill:none;stroke:black;stroke-width:0.85;stroke-linecap:round;stroke-opacity:1" />
<line x1="198.43" y1="379.64" x2="198.43" y2="385.71" style="fill:none;stroke:black;stroke-width:0.85;stroke-linecap:round;stroke-opacity:1" />
<line x1="255.12" y1="379.64" x2="255.12" y2="385.71" style="fill:none;stroke:black;stroke-width:0.85;stroke-linecap:round;stroke-opacity:1" />
<line x1="311.81" y1="379.64" x2="311.81" y2="385.71" style="fill:none;stroke:black;stroke-width:0.85;stroke-linecap:round;stroke-opacity:1" />
<line x1="368.50" y1="379.64" x2="368.50" y2="385.71" style="fill:none;stroke:black;stroke-width:0.85;stroke-linecap:round;stroke-opacity:1" />
</g>
<text x="85.04" y="397.86" style="font-size:10pt;text-anchor:middle;fill:black;stroke:none;font-weight:normal;font-family:sanserif" >0.0</text>
<text x="141.73" y="397.86" style="font-size:10pt;text-anchor:middle;fill:black;stroke:none;font-weight:normal;font-family:sanserif" >0.2</text>
<text x="198.43" y="397.86" style="font-size:10pt;text-anchor:middle;fill:black;stroke:none;font-weight:normal;font-family:sanserif" >0.4</text>
<text x="255.12" y="397.86" style="font-size:10pt;text-anchor:middle;fill:black;stroke:none;font-weight:normal;font-family:sanserif" >0.6</text>
<text x="311.81" y="397.86" style="font-size:10pt;text-anchor:middle;fill:black;stroke:none;font-weight:normal;font-family:sanserif" >0.8</text>
<text x="368.50" y="397.86" style="font-size:10pt;text-anchor:middle;fill:black;stroke:none;font-weight:normal;font-family:sanserif" >1.0</text>
<text x="226.77" y="410.01" style="font-size:12pt;text-anchor:middle;fill:black;stroke:none;font-weight:normal;font-family:sanserif" >x</text>
<g opacity="1" >
<line x1="70.87" y1="364.45" x2="70.87" y2="60.74" style="fill:none;stroke:black;stroke-width:0.85;stroke-linecap:round;stroke-opacity:1" />
<line x1="70.87" y1="364.45" x2="65.20" y2="364.45" style="fill:none;stroke:black;stroke-width:0.85;stroke-linecap:round;stroke-opacity:1" />
<line x1="70.87" y1="303.71" x2="65.20" y2="303.71" style="fill:none;stroke:black;stroke-width:0.85;stroke-linecap:round;stroke-opacity:1" />
<line x1="70.87" y1="242.97" x2="65.20" y2="242.97" style="fill:none;stroke:black;stroke-width:0.85;stroke-linecap:round;stroke-opacity:1" />
<line x1="70.87" y1="182.23" x2="65.20" y2="182.23" style="fill:none;stroke:black;stroke-width:0.85;stroke-linecap:round;stroke-opacity:1" />
<line x1="70.87" y1="121.48" x2="65.20" y2="121.48" style="fill:none;stroke:black;stroke-width:0.85;stroke-linecap:round;stroke-opacity:1" />
<line x1="70.87" y1="60.74" x2="65.20" y2="60.74" style="fill:none;stroke:black;stroke-width:0.85;stroke-linecap:round;stroke-opacity:1" />
</g>
<text x="65.20" y="364.45" style="font-size:10pt;text-anchor:end;fill:black;stroke:none;font-weight:normal;font-family:sanserif" >0.0</text>
<text x="65.20" y="303.71" style="font-size:10pt;text-anchor:end;fill:black;stroke:none;font-weight:normal;font-family:sanserif" >0.2</text>
<text x="65.20" y="242.97" style="font-size:10pt;text-anchor:end;fill:black;stroke:none;font-weight:normal;font-family:sanserif" >0.4</text>
<text x="65.20" y="182.23" style="font-size:10pt;text-anchor:end;fill:black;stroke:none;font-weight:normal;font-family:sanserif" >0.6</text>
<text x="65.20" y="121.48" style="font-size:10pt;text-anchor:end;fill:black;stroke:none;font-weight:normal;font-family:sanserif" >0.8</text>
<text x="65.20" y="60.74" style="font-size:10pt;text-anchor:end;fill:black;stroke:none;font-weight:normal;font-family:sanserif" >1.0</text>
<text x="28.35" y="212.60" style="font-size:12pt;text-anchor:middle;fill:black;stroke:none;font-weight:normal;font-family:sanserif" >y</text>
<!-- end of drawing -->
</svg>
